<svg xmlns="http://www.w3.org/2000/svg" width="450" height="70" viewBox="0 0 450 70">
  <g id="Group_6" data-name="Group 6" transform="translate(-39.392 -56.774)">
    <g id="Group_2" data-name="Group 2" transform="translate(122.793 62.021)">
      <g id="Group_1" data-name="Group 1">
        <path id="Path_1" data-name="Path 1" d="M87.489,62.938a1.556,1.556,0,0,0-1.135-.472,1.627,1.627,0,1,0,0,3.253,1.633,1.633,0,0,0,1.135-2.782Zm-4.474,0a1.473,1.473,0,0,0-1.112-.472,1.586,1.586,0,0,0-1.178.472,1.6,1.6,0,0,0,0,2.312,1.584,1.584,0,0,0,1.178.469,1.471,1.471,0,0,0,1.112-.469,1.6,1.6,0,0,0,0-2.312Z" transform="translate(-78.772 -55.889)" fill="#161615"/>
        <path id="Path_2" data-name="Path 2" d="M93.3,73.5a1.552,1.552,0,0,0-1.135-.472,1.613,1.613,0,0,0-1.178.472,1.581,1.581,0,0,0-.492,1.155,1.512,1.512,0,0,0,.492,1.155,1.62,1.62,0,0,0,2.782-1.155A1.662,1.662,0,0,0,93.3,73.5Zm-4.474,0a1.627,1.627,0,0,0-2.286,0,1.5,1.5,0,0,0-.492,1.155,1.454,1.454,0,0,0,.492,1.155,1.579,1.579,0,0,0,2.286,0,1.518,1.518,0,0,0,.492-1.155A1.589,1.589,0,0,0,88.825,73.5Z" transform="translate(-72.507 -44.512)" fill="#161615"/>
        <path id="Path_3" data-name="Path 3" d="M94.337,63.345a1.561,1.561,0,0,0-1.155-.472,1.61,1.61,0,0,0-1.627,1.647,1.512,1.512,0,0,0,.472,1.134,1.629,1.629,0,0,0,1.155.472,1.56,1.56,0,0,0,1.155-.472,1.512,1.512,0,0,0,.472-1.134A1.574,1.574,0,0,0,94.337,63.345Z" transform="translate(-66.568 -55.45)" fill="#161615"/>
        <path id="Path_4" data-name="Path 4" d="M104.8,66.725v8.239c0,.791-.322,1.2-1.006,1.219H99.357a10.707,10.707,0,0,0,.578-3.424V66.735H97.282V72.9c0,2.183-.879,3.274-2.612,3.274h-3.6V66.666a8.548,8.548,0,0,0-4.922-1.477,6.59,6.59,0,0,0-4.068,1.348,6.674,6.674,0,0,0-2.547,5.5,6.44,6.44,0,0,0,2.826,5.414,8.9,8.9,0,0,0,5.159,1.2h17.09c1.926,0,2.909-1.369,2.975-4.109V66.731ZM88.334,76.183H87.2c-3.254-.021-4.881-1.454-4.881-4.323a4.9,4.9,0,0,1,1.349-3.467,3.1,3.1,0,0,1,2.375-.983,5.239,5.239,0,0,1,2.286.555Z" transform="translate(-79.53 -52.955)" fill="#161615"/>
        <path id="Path_5" data-name="Path 5" d="M100,84.675H98.245V82.183h1.577q3.21,0,3.389-3.532h-1.039a8.889,8.889,0,0,1-5.145-1.19,6.408,6.408,0,0,1-2.855-5.4,6.657,6.657,0,0,1,2.587-5.5,6.407,6.407,0,0,1,4.044-1.367,8.52,8.52,0,0,1,4.937,1.485V78.9Q105.619,84.644,100,84.675Zm2.963-8.5V67.967a5.075,5.075,0,0,0-2.286-.565,3.148,3.148,0,0,0-2.35.981,4.973,4.973,0,0,0-1.338,3.48q0,4.282,4.846,4.311Z" transform="translate(-63.752 -52.953)" fill="#161615"/>
        <path id="Path_6" data-name="Path 6" d="M111.72,63.645a1.561,1.561,0,0,0-1.114-.472,1.663,1.663,0,0,0-1.178.472,1.564,1.564,0,0,0-.492,1.2,1.5,1.5,0,0,0,.492,1.134,1.662,1.662,0,0,0,1.178.469,1.561,1.561,0,0,0,1.114-.469,1.579,1.579,0,0,0,.49-1.134,1.647,1.647,0,0,0-.49-1.2Zm-4.218,0a1.625,1.625,0,0,0-2.286,0,1.564,1.564,0,0,0-.492,1.2,1.5,1.5,0,0,0,.492,1.134,1.631,1.631,0,0,0,2.286,0,1.552,1.552,0,0,0,.472-1.134,1.624,1.624,0,0,0-.472-1.2Z" transform="translate(-52.375 -55.127)" fill="#161615"/>
        <path id="Path_7" data-name="Path 7" d="M114.745,71.677h.428v-.021a2.813,2.813,0,0,1-.428.021Z" transform="translate(-41.572 -45.987)" fill="#161615"/>
        <path id="Path_8" data-name="Path 8" d="M135.337,62.652V75.578a7.156,7.156,0,0,1-1.006,3.9,4.168,4.168,0,0,1-3.445,1.884,2.813,2.813,0,0,1-.428.021h-22.95V82c0,3.617-1.97,5.414-5.887,5.414h-1.455V84.909H101.3c2.286,0,3.447-1.091,3.447-3.274V69.458h2.759v9.458h3.081q2.635,0,2.633-3.274V69.458h2.635v6.024a11.342,11.342,0,0,1-.557,3.424h10.767a8.311,8.311,0,0,0-7.449-7.479V68.6l9.909-5.715.623,2.57-7.707,4.363a10.606,10.606,0,0,1,7.451,9.074h1.54c1.436-.021,2.14-1.039,2.14-3.081V62.652Z" transform="translate(-57.285 -55.688)" fill="#161615"/>
        <path id="Path_9" data-name="Path 9" d="M124.692,81.384H118.24V78.916h5.943q3.092,0,3.092-3.48V62.652h2.766v12.78Q130.044,81.085,124.692,81.384ZM121.421,77.3l-1.309-14.658h2.618l1.454,14.629ZM121.3,87.648l-.148-1.01.893-.415a1.8,1.8,0,0,1-1.039-1.6A1.916,1.916,0,0,1,123,82.685a2.562,2.562,0,0,1,1.162.239l-.179.92a2.626,2.626,0,0,0-.567-.058q-1.1,0-1.1.981,0,1.1,2.261,1.1l-.06.949a13.093,13.093,0,0,0-3.214.839Z" transform="translate(-37.805 -55.697)" fill="#161615"/>
        <path id="Path_10" data-name="Path 10" d="M127.835,81.38h-2.766V62.648h2.766Z" transform="translate(-30.445 -55.693)" fill="#161615"/>
        <path id="Path_11" data-name="Path 11" d="M135.02,63.345a1.561,1.561,0,0,0-1.155-.472,1.631,1.631,0,0,0-1.155.472,1.662,1.662,0,0,0-.492,1.176,1.531,1.531,0,0,0,.492,1.134,1.631,1.631,0,0,0,1.155.472,1.561,1.561,0,0,0,1.155-.472,1.512,1.512,0,0,0,.472-1.134,1.575,1.575,0,0,0-.472-1.176Z" transform="translate(-22.74 -55.45)" fill="#161615"/>
        <path id="Path_12" data-name="Path 12" d="M145.017,73.5a1.519,1.519,0,0,0-1.135-.472,1.646,1.646,0,0,0-1.178.472,1.581,1.581,0,0,0-.492,1.155,1.512,1.512,0,0,0,.492,1.155,1.662,1.662,0,0,0,1.178.492,1.54,1.54,0,0,0,1.135-.492,1.5,1.5,0,0,0,.47-1.155A1.566,1.566,0,0,0,145.017,73.5Zm-4.453,0a1.579,1.579,0,0,0-1.178-.472,1.552,1.552,0,0,0-1.135.472,1.589,1.589,0,0,0-.492,1.155,1.518,1.518,0,0,0,.492,1.155,1.573,1.573,0,0,0,1.134.492,1.6,1.6,0,0,0,1.178-.492,1.579,1.579,0,0,0,.47-1.155,1.661,1.661,0,0,0-.47-1.155Z" transform="translate(-16.767 -44.512)" fill="#161615"/>
        <path id="Path_13" data-name="Path 13" d="M168.286,67.336a5.478,5.478,0,0,0-4.388-1.87,5.2,5.2,0,0,0-4.28,1.8,7.567,7.567,0,0,0-1.477,4.986v.513c-.021,2.055-.727,3.1-2.14,3.116h-3.229a11.344,11.344,0,0,0,.557-3.424V66.433h-2.653v6.178c0,2.183-.856,3.274-2.612,3.274h-3.618V66.437H141.7V79q0,2.856-3.275,2.89h-1.22c-3.19-.044-4.8-1.562-4.8-4.6a7.27,7.27,0,0,1,1.87-4.944l-2.119-1.519a8.846,8.846,0,0,0-2.46,6.569,6.888,6.888,0,0,0,2.4,5.331,7.344,7.344,0,0,0,5.093,1.662h1.371c3.832,0,5.8-2.011,5.887-6.024h11.794a2.994,2.994,0,0,0,2.676-1.82,6.454,6.454,0,0,0,5.587,3,4.767,4.767,0,0,0,4.494-2.761,8.748,8.748,0,0,0,.9-4.194,7.8,7.8,0,0,0-1.619-5.247Zm-4.2,9.886c-2.269,0-3.4-1.583-3.4-4.73,0-3.06,1.07-4.622,3.21-4.664,2.286,0,3.426,1.689,3.426,5.05C167.316,75.789,166.252,77.223,164.091,77.223Z" transform="translate(-25.46 -52.668)" fill="#161615"/>
        <path id="Path_14" data-name="Path 14" d="M151.418,61.378c0-.663.364-.985,1.091-.985a2.474,2.474,0,0,1,.578.064l.172-.92A2.442,2.442,0,0,0,152.1,59.3a1.951,1.951,0,0,0-.941.191,1.9,1.9,0,0,0-1.049,1.735,1.807,1.807,0,0,0,1.049,1.606l-.9.405.15,1.028a12,12,0,0,1,3.212-.831l.064-.964C152.166,62.474,151.418,62.111,151.418,61.378Z" transform="translate(-3.453 -59.3)" fill="#161615"/>
        <path id="Path_15" data-name="Path 15" d="M159.853,63.645a1.649,1.649,0,0,0-2.805,1.2,1.581,1.581,0,0,0,.492,1.134,1.662,1.662,0,0,0,1.178.469,1.606,1.606,0,0,0,1.606-1.6,1.718,1.718,0,0,0-.472-1.2Zm-4.239,0a1.579,1.579,0,0,0-1.155-.472,1.644,1.644,0,0,0-1.135.472,1.564,1.564,0,0,0-.492,1.2,1.5,1.5,0,0,0,.492,1.134,1.634,1.634,0,1,0,2.29-2.333Zm5.479,17.163h.416v-.021a2.675,2.675,0,0,1-.416.029Z" transform="translate(-0.521 -55.127)" fill="#161615"/>
        <path id="Path_16" data-name="Path 16" d="M168.832,62.652V75.578a7.155,7.155,0,0,1-1.006,3.9,4.206,4.206,0,0,1-3.468,1.884,2.674,2.674,0,0,1-.416.021H153.3q-3.017,0-3.017-4.109l-.108-14.617h2.909V77.7c0,.791.322,1.2.985,1.219h2.591c1.733,0,2.612-1.091,2.612-3.274V69.458h2.633v6.024a10.73,10.73,0,0,1-.557,3.424h2.585c1.413-.021,2.14-1.039,2.14-3.081V62.652Z" transform="translate(-3.379 -55.688)" fill="#161615"/>
        <path id="Path_17" data-name="Path 17" d="M163.066,81.38H160.3V62.648h2.766Z" transform="translate(7.53 -55.693)" fill="#161615"/>
        <path id="Path_18" data-name="Path 18" d="M172.882,62.938a1.556,1.556,0,0,0-1.135-.472,1.627,1.627,0,1,0,0,3.253,1.554,1.554,0,0,0,1.135-.469,1.662,1.662,0,0,0,0-2.312Zm-4.474,0a1.521,1.521,0,0,0-1.135-.472,1.569,1.569,0,0,0-1.155.472,1.6,1.6,0,0,0,0,2.312,1.567,1.567,0,0,0,1.155.47,1.519,1.519,0,0,0,1.135-.469,1.662,1.662,0,0,0,0-2.312Z" transform="translate(13.27 -55.889)" fill="#161615"/>
        <path id="Path_19" data-name="Path 19" d="M196.374,70.612a6.372,6.372,0,0,0-8.434-1.818,13.129,13.129,0,0,0-3.811,3.831V62.653h-2.761q0,12.9-.042,16.264h-4.86V69.4a8.548,8.548,0,0,0-4.922-1.477,6.59,6.59,0,0,0-4.068,1.348,6.674,6.674,0,0,0-2.547,5.5,6.377,6.377,0,0,0,2.826,5.414,8.9,8.9,0,0,0,5.159,1.2h24.211l.555-2.825a15.165,15.165,0,0,0,.343-3.1,8.4,8.4,0,0,0-1.648-4.842Zm-22.649,8.31h-1.135c-3.254-.021-4.881-1.454-4.881-4.323a4.9,4.9,0,0,1,1.349-3.467,3.1,3.1,0,0,1,2.375-.983,5.239,5.239,0,0,1,2.286.555Zm20.955,0H183.992V76.954a3.052,3.052,0,0,1,.366-1.072,12.353,12.353,0,0,1,2.568-3.573,6.064,6.064,0,0,1,4.2-1.926,3.79,3.79,0,0,1,3.4,2.225,6.476,6.476,0,0,1,.727,3.116,10.917,10.917,0,0,1-.569,3.191Z" transform="translate(12.512 -55.687)" fill="#161615"/>
        <path id="Path_20" data-name="Path 20" d="M209.048,69.458v5.885A8.21,8.21,0,0,1,208,79.836a3.591,3.591,0,0,1-3.117,1.712,5.266,5.266,0,0,1-4.133-1.776,4.913,4.913,0,0,1-3.74,1.606H184.934c-1.947,0-2.932-1.369-2.932-4.109V62.652h2.739V77.7c0,.791.322,1.2,1.008,1.219h5.286V71.6h2.741v7.319h2.078a3.761,3.761,0,0,0,1.777-.3c.706-.415,1.039-1.392,1.039-2.954V70.4h2.741v5.308q0,3.21,2.439,3.21c1.648,0,2.462-1.134,2.462-3.4V69.458Z" transform="translate(30.922 -55.688)" fill="#161615"/>
        <path id="Path_21" data-name="Path 21" d="M202.528,71.677h.428v-.021a2.81,2.81,0,0,1-.428.021Z" transform="translate(53.046 -45.987)" fill="#161615"/>
        <path id="Path_22" data-name="Path 22" d="M211.512,62.652V75.839c0,2.034-.706,3.06-2.142,3.081h-1.627V69.4a8.614,8.614,0,0,0-4.943-1.477,6.478,6.478,0,0,0-4.046,1.348,6.647,6.647,0,0,0-2.591,5.5,6.415,6.415,0,0,0,2.867,5.414,8.874,8.874,0,0,0,5.139,1.2H205.2c-.106,2.354-1.247,3.532-3.381,3.532H200.23v2.5h1.756c3.832-.021,5.758-2.032,5.758-6.024h1.65a2.816,2.816,0,0,0,.428-.021,4.168,4.168,0,0,0,3.445-1.884,7.155,7.155,0,0,0,1.006-3.9V62.652Zm-6.541,16.264h-1.114C200.626,78.9,199,77.462,199,74.593a4.9,4.9,0,0,1,1.349-3.467,3.076,3.076,0,0,1,2.333-.983,5.223,5.223,0,0,1,2.286.555Z" transform="translate(46.181 -55.688)" fill="#161615"/>
        <path id="Path_23" data-name="Path 23" d="M212.282,63.344a1.625,1.625,0,0,0-2.286,0,1.583,1.583,0,0,0-.492,1.176A1.454,1.454,0,0,0,210,65.654a1.625,1.625,0,0,0,2.286,0,1.531,1.531,0,0,0,.493-1.134,1.593,1.593,0,0,0-.493-1.176Z" transform="translate(60.565 -55.449)" fill="#161615"/>
        <path id="Path_24" data-name="Path 24" d="M219.231,73.5a1.519,1.519,0,0,0-1.135-.472,1.65,1.65,0,0,0-1.178.472,1.589,1.589,0,0,0-.492,1.155,1.518,1.518,0,0,0,.492,1.155,1.662,1.662,0,0,0,1.178.492,1.54,1.54,0,0,0,1.135-.492,1.5,1.5,0,0,0,.47-1.155,1.566,1.566,0,0,0-.47-1.155Zm-4.453,0a1.577,1.577,0,0,0-1.178-.472,1.552,1.552,0,0,0-1.135.472,1.587,1.587,0,0,0-.49,1.155,1.518,1.518,0,0,0,.49,1.155,1.573,1.573,0,0,0,1.135.492,1.648,1.648,0,0,0,1.178-2.8Z" transform="translate(63.228 -44.512)" fill="#161615"/>
        <path id="Path_25" data-name="Path 25" d="M236.928,81.256H214.794v.623c0,3.617-1.97,5.414-5.887,5.414h-1.454V84.787h1.137c2.286,0,3.447-1.091,3.447-3.274V69.336H214.8v9.458h3.659c1.756,0,2.612-1.091,2.612-3.274V69.336h2.653V75.36a11.339,11.339,0,0,1-.555,3.424h10.724a8.31,8.31,0,0,0-7.428-7.479V68.48l9.932-5.715.6,2.57L229.289,69.7C234.251,71.37,236.8,75.2,236.928,81.256Z" transform="translate(58.354 -55.567)" fill="#161615"/>
        <path id="Path_26" data-name="Path 26" d="M223.579,83.883h-1.486V81.39h1.128q3.482,0,3.482-3.272V65.926h2.732V78.471Q229.436,83.881,223.579,83.883Z" transform="translate(74.134 -52.161)" fill="#161615"/>
        <path id="Path_27" data-name="Path 27" d="M236.878,62.938a1.557,1.557,0,0,0-1.135-.472,1.627,1.627,0,1,0,0,3.253,1.633,1.633,0,0,0,1.135-2.782Zm-4.474,0a1.48,1.48,0,0,0-1.114-.472,1.584,1.584,0,0,0-1.176.472,1.6,1.6,0,0,0,0,2.312,1.582,1.582,0,0,0,1.176.469,1.478,1.478,0,0,0,1.114-.47,1.6,1.6,0,0,0,0-2.312Z" transform="translate(82.249 -55.889)" fill="#161615"/>
        <path id="Path_28" data-name="Path 28" d="M245.685,69.708l7.7-4.363-.6-2.57-9.932,5.715v2.825a8.311,8.311,0,0,1,7.449,7.479h-9.847V69.266a8.533,8.533,0,0,0-4.9-1.477,6.607,6.607,0,0,0-4.089,1.348,6.732,6.732,0,0,0-2.548,5.5,6.44,6.44,0,0,0,2.826,5.414,8.936,8.936,0,0,0,5.18,1.2h16.4C253.219,75.188,250.672,71.358,245.685,69.708Zm-7.964,9.074h-1.135c-3.254-.021-4.881-1.454-4.881-4.323a4.9,4.9,0,0,1,1.351-3.467,3.167,3.167,0,0,1,2.375-.983,5.223,5.223,0,0,1,2.286.555Z" transform="translate(81.492 -55.555)" fill="#161615"/>
        <path id="Path_29" data-name="Path 29" d="M256.807,65.853a1.64,1.64,0,0,0-1.135-.472,1.748,1.748,0,0,0-1.176.472,1.641,1.641,0,0,0-.492,1.2,1.572,1.572,0,0,0,.492,1.134,1.745,1.745,0,0,0,1.176.469,1.638,1.638,0,0,0,1.135-.469,1.552,1.552,0,0,0,.472-1.134,1.624,1.624,0,0,0-.472-1.2Zm-2.439-4.238a1.544,1.544,0,0,0-1.134-.492,1.679,1.679,0,0,0-1.178.492,1.568,1.568,0,0,0-.492,1.178,1.545,1.545,0,0,0,.492,1.134,1.662,1.662,0,0,0,1.178.47,1.606,1.606,0,0,0,1.606-1.6,1.545,1.545,0,0,0-.472-1.17Zm-2.024,4.238a1.554,1.554,0,0,0-1.112-.472,1.663,1.663,0,0,0-1.178.472,1.641,1.641,0,0,0-.492,1.2,1.573,1.573,0,0,0,.492,1.134,1.663,1.663,0,0,0,1.178.469,1.552,1.552,0,0,0,1.112-.469,1.572,1.572,0,0,0,.492-1.134,1.641,1.641,0,0,0-.493-1.2Z" transform="translate(103.741 -57.336)" fill="#161615"/>
        <path id="Path_30" data-name="Path 30" d="M271.92,65.928v5.885a8.209,8.209,0,0,1-1.039,4.493,3.591,3.591,0,0,1-3.117,1.712,5.239,5.239,0,0,1-4.133-1.776,4.913,4.913,0,0,1-3.74,1.606h-11.41v.623c0,3.617-1.97,5.414-5.887,5.414h-1.454V81.38h1.135c2.286,0,3.447-1.091,3.447-3.274V65.928h2.761v9.458h5.436V68.068h2.72v7.319h2.078a3.762,3.762,0,0,0,1.777-.3c.706-.415,1.049-1.392,1.049-2.954V66.869h2.741v5.308q0,3.21,2.439,3.21c1.648,0,2.462-1.134,2.462-3.4V65.928Z" transform="translate(94.665 -52.159)" fill="#161615"/>
      </g>
      <path id="Path_31" data-name="Path 31" d="M80.141,80.38a16.724,16.724,0,0,1,3.032-.268,5.038,5.038,0,0,1,3.532,1,3.053,3.053,0,0,1,.958,2.318,3.222,3.222,0,0,1-2.3,3.116v.044a3.093,3.093,0,0,1,1.789,2.47,20.562,20.562,0,0,0,.937,3.349H86.456a16.038,16.038,0,0,1-.8-2.921c-.362-1.662-1.022-2.318-2.45-2.366H81.718v5.287H80.145Zm1.577,5.549h1.61c1.687,0,2.755-.92,2.755-2.318,0-1.583-1.143-2.271-2.805-2.285a6.9,6.9,0,0,0-1.56.139Z" transform="translate(-78.871 -36.902)" fill="#161615"/>
      <path id="Path_32" data-name="Path 32" d="M90.411,90.665l-.139-1.105h-.048a3.258,3.258,0,0,1-2.678,1.3,2.493,2.493,0,0,1-2.674-2.512c0-2.119,1.87-3.284,5.261-3.259V84.9a1.8,1.8,0,0,0-1.995-2.017,4.256,4.256,0,0,0-2.286.652L85.49,82.48a5.507,5.507,0,0,1,2.888-.769c2.678,0,3.325,1.83,3.325,3.584v3.276a13.755,13.755,0,0,0,.131,2.094Zm-.247-4.471c-1.723-.035-3.7.274-3.7,1.967a1.4,1.4,0,0,0,1.486,1.523,2.192,2.192,0,0,0,2.134-1.465,1.643,1.643,0,0,0,.077-.5Z" transform="translate(-73.773 -35.154)" fill="#161615"/>
      <path id="Path_33" data-name="Path 33" d="M90.987,87.947h.035c.208-.31.515-.7.765-1l2.581-3.016H96.28l-3.381,3.6,3.854,5.154H94.8l-3-4.2-.815.912v3.295H89.4V79.835h1.583Z" transform="translate(-68.891 -37.175)" fill="#161615"/>
      <path id="Path_34" data-name="Path 34" d="M94.735,86.576a2.8,2.8,0,0,0,3,3.039,5.915,5.915,0,0,0,2.425-.449l.278,1.13a7.066,7.066,0,0,1-2.921.559,4.08,4.08,0,0,1-4.307-4.419,4.255,4.255,0,0,1,4.118-4.726,3.694,3.694,0,0,1,3.605,4.12,3.878,3.878,0,0,1-.056.746ZM99.4,85.43a2.258,2.258,0,0,0-2.2-2.576,2.616,2.616,0,0,0-2.444,2.576Z" transform="translate(-64.815 -35.154)" fill="#161615"/>
      <path id="Path_35" data-name="Path 35" d="M99.249,86.576a2.8,2.8,0,0,0,3,3.039,5.907,5.907,0,0,0,2.425-.449l.278,1.13a7.066,7.066,0,0,1-2.921.559,4.08,4.08,0,0,1-4.316-4.419,4.255,4.255,0,0,1,4.12-4.726,3.694,3.694,0,0,1,3.6,4.12,3.909,3.909,0,0,1-.054.746Zm4.663-1.147a2.26,2.26,0,0,0-2.2-2.576A2.616,2.616,0,0,0,99.27,85.43Z" transform="translate(-59.958 -35.154)" fill="#161615"/>
      <path id="Path_36" data-name="Path 36" d="M101.991,89.631l3.967-5.139c.391-.488.744-.906,1.151-1.371v-.042h-4.756V81.808h6.687V82.8l-3.913,5.092c-.374.472-.733.92-1.124,1.359v.037h5.114V90.56H102.01Z" transform="translate(-55.319 -35.05)" fill="#161615"/>
      <path id="Path_37" data-name="Path 37" d="M114.387,86.628h-4.731v4.406h5.292v1.313h-6.876v-12.2h6.6v1.313h-5.014v3.862h4.731Z" transform="translate(-48.765 -36.837)" fill="#161615"/>
      <path id="Path_38" data-name="Path 38" d="M112.331,79.835h1.583V92.686h-1.583Z" transform="translate(-44.174 -37.175)" fill="#161615"/>
      <path id="Path_39" data-name="Path 39" d="M115.623,86.576a2.8,2.8,0,0,0,3,3.039,5.9,5.9,0,0,0,2.425-.449l.28,1.13a7.089,7.089,0,0,1-2.921.559,4.08,4.08,0,0,1-4.307-4.419,4.253,4.253,0,0,1,4.118-4.726,3.694,3.694,0,0,1,3.6,4.12,3.909,3.909,0,0,1-.054.746Zm4.661-1.147a2.26,2.26,0,0,0-2.2-2.576,2.616,2.616,0,0,0-2.444,2.576Z" transform="translate(-42.301 -35.154)" fill="#161615"/>
      <path id="Path_40" data-name="Path 40" d="M125.334,90.348a6.027,6.027,0,0,1-2.512.509,4.172,4.172,0,0,1-4.364-4.475,4.457,4.457,0,0,1,4.7-4.666,5.1,5.1,0,0,1,2.213.467l-.353,1.221a3.878,3.878,0,0,0-1.87-.415,3.035,3.035,0,0,0-3.088,3.324,3,3,0,0,0,3.048,3.274,4.612,4.612,0,0,0,1.949-.416Z" transform="translate(-37.583 -35.156)" fill="#161615"/>
      <path id="Path_41" data-name="Path 41" d="M125.21,80.594v2.522H127.5v1.2H125.21v4.716c0,1.093.314,1.71,1.205,1.71a3.15,3.15,0,0,0,.92-.116l.073,1.209a4.024,4.024,0,0,1-1.421.22,2.228,2.228,0,0,1-1.718-.675,3.348,3.348,0,0,1-.623-2.285V84.321h-1.357v-1.2h1.357V81.005Z" transform="translate(-33.441 -36.358)" fill="#161615"/>
      <path id="Path_42" data-name="Path 42" d="M125.7,84.636c0-1.039-.027-1.911-.075-2.723h1.4l.062,1.716h.056a2.658,2.658,0,0,1,2.437-1.917,1.87,1.87,0,0,1,.445.046v1.5a2.629,2.629,0,0,0-.542-.046,2.225,2.225,0,0,0-2.132,2.036,4.183,4.183,0,0,0-.064.744v4.676H125.7Z" transform="translate(-29.846 -35.154)" fill="#161615"/>
      <path id="Path_43" data-name="Path 43" d="M136.694,86.2a4.288,4.288,0,0,1-4.364,4.66,4.155,4.155,0,0,1-4.208-4.506,4.276,4.276,0,0,1,4.347-4.645,4.141,4.141,0,0,1,4.224,4.491Zm-6.942.1c0,1.92,1.1,3.363,2.653,3.363s2.666-1.425,2.666-3.411c0-1.481-.744-3.355-2.637-3.355s-2.678,1.743-2.678,3.4Z" transform="translate(-27.171 -35.155)" fill="#161615"/>
      <path id="Path_44" data-name="Path 44" d="M133.249,84.277c0-.914-.029-1.639-.073-2.364h1.409l.087,1.438h.044a3.235,3.235,0,0,1,2.894-1.639c1.2,0,3.086.725,3.086,3.739v5.223h-1.583V85.625c0-1.415-.534-2.6-2.024-2.6a2.286,2.286,0,0,0-2.144,1.633,2.475,2.475,0,0,0-.11.74v5.275h-1.585Z" transform="translate(-21.706 -35.155)" fill="#161615"/>
      <path id="Path_45" data-name="Path 45" d="M139.93,81.13a.987.987,0,1,1-1.974,0,.968.968,0,0,1,.989-.991.956.956,0,0,1,.985.991ZM138.15,92.358V83.606h1.585v8.752Z" transform="translate(-16.555 -36.848)" fill="#161615"/>
      <path id="Path_46" data-name="Path 46" d="M146.666,90.348a6.011,6.011,0,0,1-2.512.509,4.174,4.174,0,0,1-4.363-4.475,4.457,4.457,0,0,1,4.7-4.666,5.106,5.106,0,0,1,2.215.467l-.355,1.222a3.878,3.878,0,0,0-1.87-.415,3.035,3.035,0,0,0-3.088,3.324,3,3,0,0,0,3.05,3.274,4.6,4.6,0,0,0,1.947-.416Z" transform="translate(-14.588 -35.156)" fill="#161615"/>
      <path id="Path_47" data-name="Path 47" d="M147.448,80.149v12.2h-1.581v-12.2Z" transform="translate(-8.027 -36.837)" fill="#161615"/>
      <path id="Path_48" data-name="Path 48" d="M148.053,84.277c0-.914-.031-1.639-.073-2.364h1.409l.087,1.438h.044a3.233,3.233,0,0,1,2.895-1.639c1.2,0,3.086.725,3.086,3.739v5.223h-1.585V85.625c0-1.415-.532-2.6-2.022-2.6a2.286,2.286,0,0,0-2.144,1.633,2.408,2.408,0,0,0-.11.74v5.274h-1.585Z" transform="translate(-5.75 -35.155)" fill="#161615"/>
      <path id="Path_49" data-name="Path 49" d="M152.947,89.054a4.323,4.323,0,0,0,2.109.623c1.164,0,1.7-.571,1.7-1.3,0-.764-.463-1.165-1.629-1.6-1.581-.573-2.331-1.433-2.327-2.48a2.7,2.7,0,0,1,3.03-2.57,4.215,4.215,0,0,1,2.144.54l-.395,1.157a3.435,3.435,0,0,0-1.8-.515c-.939,0-1.454.54-1.454,1.2,0,.725.515,1.039,1.662,1.492,1.511.563,2.286,1.323,2.3,2.632,0,1.552-1.205,2.638-3.273,2.638a5.006,5.006,0,0,1-2.462-.611Z" transform="translate(-0.815 -35.166)" fill="#161615"/>
      <path id="Path_50" data-name="Path 50" d="M163.663,88.163c0,.92.029,1.706.073,2.4h-1.409l-.085-1.431H162.2a3.266,3.266,0,0,1-2.909,1.629c-1.369,0-3.015-.767-3.015-3.835V81.808h1.583v4.834c0,1.662.519,2.8,1.957,2.8a2.323,2.323,0,0,0,2.109-1.454,2.493,2.493,0,0,0,.143-.818v-5.36h1.585Z" transform="translate(3.19 -35.05)" fill="#161615"/>
      <path id="Path_51" data-name="Path 51" d="M161.145,84.636c0-1.039-.025-1.911-.071-2.723h1.394l.06,1.716h.056a2.664,2.664,0,0,1,2.439-1.917,1.845,1.845,0,0,1,.443.046v1.5a2.59,2.59,0,0,0-.542-.046,2.221,2.221,0,0,0-2.13,2.036,4,4,0,0,0-.064.744v4.676h-1.585Z" transform="translate(8.364 -35.154)" fill="#161615"/>
      <path id="Path_52" data-name="Path 52" d="M169.127,90.665l-.139-1.105h-.046a3.262,3.262,0,0,1-2.68,1.3,2.493,2.493,0,0,1-2.674-2.512c0-2.119,1.87-3.284,5.263-3.259V84.9a1.8,1.8,0,0,0-1.995-2.017,4.269,4.269,0,0,0-2.286.652l-.362-1.059a5.52,5.52,0,0,1,2.89-.769c2.676,0,3.325,1.83,3.325,3.584v3.276a13.734,13.734,0,0,0,.133,2.094Zm-.247-4.471c-1.723-.035-3.694.274-3.694,1.967a1.4,1.4,0,0,0,1.486,1.523A2.194,2.194,0,0,0,168.8,88.22a1.7,1.7,0,0,0,.075-.5Z" transform="translate(11.073 -35.154)" fill="#161615"/>
      <path id="Path_53" data-name="Path 53" d="M168.159,84.277c0-.914-.031-1.639-.075-2.364h1.409l.087,1.438h.046a3.233,3.233,0,0,1,2.892-1.639c1.2,0,3.088.725,3.088,3.739v5.223H174.02V85.625c0-1.415-.534-2.6-2.024-2.6a2.286,2.286,0,0,0-2.144,1.633,2.473,2.473,0,0,0-.11.74v5.275h-1.583Z" transform="translate(15.92 -35.155)" fill="#161615"/>
      <path id="Path_54" data-name="Path 54" d="M179.536,90.348a6.027,6.027,0,0,1-2.512.509,4.172,4.172,0,0,1-4.364-4.475,4.459,4.459,0,0,1,4.7-4.666,5.094,5.094,0,0,1,2.211.467l-.353,1.221a3.872,3.872,0,0,0-1.87-.415,3.037,3.037,0,0,0-3.09,3.324,3,3,0,0,0,3.065,3.27,4.61,4.61,0,0,0,1.949-.415Z" transform="translate(20.84 -35.156)" fill="#161615"/>
      <path id="Path_55" data-name="Path 55" d="M178.043,86.576a2.8,2.8,0,0,0,3,3.039,5.907,5.907,0,0,0,2.425-.449l.278,1.13a7.066,7.066,0,0,1-2.909.559,4.083,4.083,0,0,1-4.31-4.419,4.255,4.255,0,0,1,4.12-4.726,3.694,3.694,0,0,1,3.6,4.12,4.089,4.089,0,0,1-.054.746ZM182.7,85.43a2.26,2.26,0,0,0-2.2-2.576,2.616,2.616,0,0,0-2.443,2.576Z" transform="translate(24.988 -35.154)" fill="#161615"/>
      <path id="Path_56" data-name="Path 56" d="M183.05,80.376a14.984,14.984,0,0,1,2.88-.262,5.021,5.021,0,0,1,3.349.885,2.594,2.594,0,0,1,1.02,2.161,2.881,2.881,0,0,1-2.065,2.672v.048a3.116,3.116,0,0,1,2.52,3.062,3.2,3.2,0,0,1-1.039,2.428,6.014,6.014,0,0,1-4.212,1.147,21.271,21.271,0,0,1-2.448-.137Zm1.575,5h1.454c1.65,0,2.626-.879,2.626-2.061,0-1.415-1.072-1.986-2.666-1.986a6.371,6.371,0,0,0-1.4.112Zm0,5.835a7.311,7.311,0,0,0,1.328.081c1.637,0,3.14-.6,3.14-2.374,0-1.662-1.436-2.356-3.154-2.358h-1.313Z" transform="translate(32.051 -36.898)" fill="#161615"/>
      <path id="Path_57" data-name="Path 57" d="M187.8,84.636c0-1.039-.023-1.911-.071-2.723h1.394l.06,1.716h.058a2.662,2.662,0,0,1,2.437-1.917,1.846,1.846,0,0,1,.443.046v1.5a2.583,2.583,0,0,0-.54-.046,2.225,2.225,0,0,0-2.132,2.036,4.177,4.177,0,0,0-.064.744v4.676H187.8Z" transform="translate(37.091 -35.154)" fill="#161615"/>
      <path id="Path_58" data-name="Path 58" d="M198.788,86.2a4.286,4.286,0,0,1-4.351,4.66,4.155,4.155,0,0,1-4.21-4.506,4.278,4.278,0,0,1,4.347-4.645,4.139,4.139,0,0,1,4.214,4.491Zm-6.94.1c0,1.92,1.1,3.363,2.653,3.363s2.668-1.425,2.668-3.411c0-1.481-.746-3.355-2.639-3.355s-2.68,1.743-2.68,3.4Z" transform="translate(39.77 -35.155)" fill="#161615"/>
      <path id="Path_59" data-name="Path 59" d="M196.894,87.947h.035c.208-.31.513-.7.765-1l2.581-3.016h1.914l-3.383,3.6,3.854,5.154h-1.939l-3.013-4.2-.815.912v3.295h-1.583V79.835h1.583Z" transform="translate(45.267 -37.175)" fill="#161615"/>
      <path id="Path_60" data-name="Path 60" d="M200.644,86.576a2.8,2.8,0,0,0,3,3.039,5.907,5.907,0,0,0,2.425-.449l.278,1.13a7.08,7.08,0,0,1-2.921.559,4.08,4.08,0,0,1-4.307-4.419,4.255,4.255,0,0,1,4.118-4.726,3.7,3.7,0,0,1,3.605,4.119,3.874,3.874,0,0,1-.056.746Zm4.663-1.147a2.262,2.262,0,0,0-2.2-2.576,2.616,2.616,0,0,0-2.444,2.576Z" transform="translate(49.34 -35.154)" fill="#161615"/>
      <path id="Path_61" data-name="Path 61" d="M203.813,84.636c0-1.039-.025-1.911-.071-2.723h1.394l.06,1.716h.056a2.662,2.662,0,0,1,2.439-1.917,1.847,1.847,0,0,1,.443.046v1.5a2.59,2.59,0,0,0-.542-.046,2.221,2.221,0,0,0-2.13,2.036,4,4,0,0,0-.064.744v4.676h-1.585Z" transform="translate(54.354 -35.154)" fill="#161615"/>
      <path id="Path_62" data-name="Path 62" d="M211.8,90.665l-.139-1.105h-.048a3.258,3.258,0,0,1-2.68,1.3,2.493,2.493,0,0,1-2.674-2.512c0-2.119,1.87-3.284,5.263-3.259V84.9a1.8,1.8,0,0,0-1.993-2.017,4.258,4.258,0,0,0-2.286.652l-.362-1.059a5.509,5.509,0,0,1,2.89-.769c2.676,0,3.325,1.83,3.325,3.584v3.276a13.746,13.746,0,0,0,.133,2.094Zm-.247-4.471c-1.723-.035-3.7.274-3.7,1.967a1.4,1.4,0,0,0,1.488,1.523,2.192,2.192,0,0,0,2.132-1.465,1.64,1.64,0,0,0,.077-.5Z" transform="translate(57.062 -35.154)" fill="#161615"/>
      <path id="Path_63" data-name="Path 63" d="M218.687,81.912c-.042.623-.073,1.33-.073,2.393v5.083a5.1,5.1,0,0,1-1.247,4.007,4.709,4.709,0,0,1-3.192,1.051,5.657,5.657,0,0,1-2.924-.721l.4-1.224a4.94,4.94,0,0,0,2.577.7c1.625,0,2.82-.85,2.82-3.064v-.97h-.035a3.117,3.117,0,0,1-2.782,1.473,3.918,3.918,0,0,1-3.74-4.279,4.195,4.195,0,0,1,3.948-4.643,2.909,2.909,0,0,1,2.732,1.512h.035l.069-1.311Zm-1.662,3.442a2.332,2.332,0,0,0-.089-.713,2.286,2.286,0,0,0-2.236-1.693c-1.517,0-2.608,1.284-2.608,3.324,0,1.712.885,3.151,2.593,3.151a2.331,2.331,0,0,0,2.215-1.641,2.819,2.819,0,0,0,.125-.848Z" transform="translate(61.603 -35.154)" fill="#161615"/>
      <path id="Path_64" data-name="Path 64" d="M216.9,86.576a2.8,2.8,0,0,0,3,3.039,5.9,5.9,0,0,0,2.427-.449l.278,1.13a7.066,7.066,0,0,1-2.922.559,4.08,4.08,0,0,1-4.307-4.419,3.9,3.9,0,1,1,7.667.139Zm4.661-1.147a2.26,2.26,0,0,0-2.2-2.576,2.62,2.62,0,0,0-2.444,2.574Z" transform="translate(66.858 -35.154)" fill="#161615"/>
      <path id="Path_65" data-name="Path 65" d="M230.8,92.058a7.77,7.77,0,0,1-3.223.584,5.7,5.7,0,0,1-6.015-6.18,6.056,6.056,0,0,1,6.371-6.4,6.588,6.588,0,0,1,2.895.538l-.387,1.282a5.819,5.819,0,0,0-2.456-.5,4.535,4.535,0,0,0-4.76,5.034A4.423,4.423,0,0,0,227.9,91.3a6.4,6.4,0,0,0,2.583-.5Z" transform="translate(73.542 -36.941)" fill="#161615"/>
      <path id="Path_66" data-name="Path 66" d="M235.106,86.2a4.288,4.288,0,0,1-4.364,4.66,4.166,4.166,0,0,1-4.208-4.506,4.278,4.278,0,0,1,4.349-4.645,4.141,4.141,0,0,1,4.222,4.491Zm-6.942.1c0,1.92,1.1,3.363,2.653,3.363s2.668-1.425,2.668-3.411c0-1.481-.746-3.355-2.639-3.355s-2.682,1.743-2.682,3.4Z" transform="translate(78.905 -35.155)" fill="#161615"/>
      <path id="Path_67" data-name="Path 67" d="M231.662,84.281c0-.914-.029-1.639-.073-2.364h1.384l.083,1.408h.046a3.023,3.023,0,0,1,2.764-1.61,2.577,2.577,0,0,1,2.469,1.755h.037a3.547,3.547,0,0,1,.987-1.138,2.98,2.98,0,0,1,1.926-.623c1.17,0,2.89.754,2.89,3.8v5.156h-1.55V85.718c0-1.7-.623-2.7-1.9-2.7a2.078,2.078,0,0,0-1.895,1.435,2.647,2.647,0,0,0-.131.8v5.42h-1.554V85.415c0-1.392-.623-2.4-1.82-2.4a2.2,2.2,0,0,0-1.984,1.591,2.567,2.567,0,0,0-.118.783v5.277h-1.556Z" transform="translate(84.37 -35.158)" fill="#161615"/>
      <path id="Path_68" data-name="Path 68" d="M238.592,84.765c0-1.116-.029-2.025-.073-2.85h1.423l.089,1.492h.033a3.425,3.425,0,0,1,3.117-1.693,3.964,3.964,0,0,1,3.717,4.444,4.155,4.155,0,0,1-3.981,4.707,3.061,3.061,0,0,1-2.7-1.377h-.035V94.25H238.6Zm1.583,2.339a2.947,2.947,0,0,0,.069.646,2.448,2.448,0,0,0,2.381,1.87c1.687,0,2.662-1.386,2.662-3.392,0-1.747-.916-3.247-2.6-3.247a2.527,2.527,0,0,0-2.408,1.963,2.772,2.772,0,0,0-.1.646Z" transform="translate(91.839 -35.156)" fill="#161615"/>
      <path id="Path_69" data-name="Path 69" d="M248.831,90.665l-.141-1.105h-.046a3.26,3.26,0,0,1-2.678,1.3,2.493,2.493,0,0,1-2.674-2.512c0-2.119,1.87-3.284,5.261-3.259V84.9a1.8,1.8,0,0,0-1.995-2.017,4.269,4.269,0,0,0-2.286.652l-.362-1.059a5.52,5.52,0,0,1,2.89-.769c2.676,0,3.325,1.83,3.325,3.584v3.276a13.746,13.746,0,0,0,.133,2.094Zm-.249-4.471c-1.723-.035-3.694.274-3.694,1.967a1.4,1.4,0,0,0,1.486,1.523,2.192,2.192,0,0,0,2.134-1.465,1.636,1.636,0,0,0,.075-.5Z" transform="translate(96.983 -35.154)" fill="#161615"/>
      <path id="Path_70" data-name="Path 70" d="M247.86,84.277c0-.914-.029-1.639-.071-2.364h1.4l.087,1.438h.046a3.233,3.233,0,0,1,2.895-1.639c1.2,0,3.088.725,3.088,3.739v5.223h-1.585V85.625c0-1.415-.534-2.6-2.026-2.6a2.286,2.286,0,0,0-2.144,1.633,2.542,2.542,0,0,0-.11.74v5.275H247.86Z" transform="translate(101.831 -35.155)" fill="#161615"/>
      <path id="Path_71" data-name="Path 71" d="M253.725,81.812l1.912,5.173c.208.578.416,1.265.563,1.784h.046c.156-.515.349-1.184.557-1.82l1.733-5.137h1.689l-2.4,6.232a13.344,13.344,0,0,1-3,5.488,4.418,4.418,0,0,1-1.953,1.024l-.395-1.332a4.222,4.222,0,0,0,1.394-.777,5.065,5.065,0,0,0,1.332-1.774.949.949,0,0,0,.123-.382,1.038,1.038,0,0,0-.112-.415L251.992,81.8Z" transform="translate(106.361 -35.054)" fill="#161615"/>
    </g>
    <g id="Group_5" data-name="Group 5" transform="translate(39.392 56.774)">
      <path id="Path_72" data-name="Path 72" d="M100.772,56.774H48.057a8.641,8.641,0,0,0-8.665,8.642v52.7a8.645,8.645,0,0,0,8.665,8.663h52.715a8.641,8.641,0,0,0,8.644-8.663v-52.7a8.637,8.637,0,0,0-8.644-8.642ZM73.656,120.966a76.751,76.751,0,0,1-18.1-8.829c-10.846-7.977-6.753-18.51-2.286-28.9a7.862,7.862,0,0,0-1.912-8.372l2.826-3.656c.395.374.79.769,1.205,1.184a12.159,12.159,0,0,1,2.182,12.693A42.121,42.121,0,0,0,53.355,98.8a11.348,11.348,0,0,0,.125,2.41c.042.291.1.561.166.831l.042-.042c.893-1.288,1.517-2.285,1.621-2.451a18.516,18.516,0,0,1,5.486-5.526,11.131,11.131,0,0,1,7.065-1.807,10.669,10.669,0,0,1,4.01,1.475c4.031,2.223,4.7,4.986,6.566,4.757,1.683-.208,2.6-2.638,2.639-2.8.229-.6.769-2.493-1.725-7.229a41.848,41.848,0,0,0-10.743-12.4,2.931,2.931,0,0,1-.353-.291,74.9,74.9,0,0,0-11.885-7.79h-.021c-1.164-.623-2.39-1.246-3.7-1.87v-.021A28.966,28.966,0,0,1,55,62.549a58.172,58.172,0,0,0,10.722,2.7,59.66,59.66,0,0,0,6.608.6,56.709,56.709,0,0,0,6.961-.062,50.3,50.3,0,0,0,5.34-.623,45.89,45.89,0,0,0,8.956-2.618c.79,1.184,1.579,2.389,2.39,3.594-.125.083-.229.145-.332.229a15.5,15.5,0,0,1-4.2,1.787,50.44,50.44,0,0,1-10.7,1.766c-1.932.145-4.073.229-6.462.229-1.849,0-3.553-.062-5.132-.145.769.561,1.579,1.163,2.41,1.828A48.735,48.735,0,0,1,82.217,83.053c1.517,2.285,7.958,12.485,4.28,18.489a8.249,8.249,0,0,1-5.174,3.926,7.59,7.59,0,0,1-3.387-.249c-1.579-.478-2.119-1.163-4.966-3.3a14.149,14.149,0,0,0-4.2-2.659A7.856,7.856,0,0,0,63.121,101a47.99,47.99,0,0,0-5.652,5.858.258.258,0,0,1-.062.042c-.062.062-.145.145-.27.249a.278.278,0,0,1-.145.125c.416.374.852.727,1.33,1.1a69.781,69.781,0,0,0,15.335,7.645Z" transform="translate(-39.392 -56.774)" fill="#277ac0"/>
      <g id="Group_4" data-name="Group 4" transform="translate(8.27 5.775)">
        <path id="Path_73" data-name="Path 73" d="M45.752,61.234a.021.021,0,0,1,.021.021h.021v-.021Z" transform="translate(-40.807 -57.744)" fill="#fff"/>
        <path id="Path_74" data-name="Path 74" d="M91.168,63.148c-.125.083-.229.145-.332.229a15.5,15.5,0,0,1-4.2,1.787,50.44,50.44,0,0,1-10.7,1.766c-1.932.145-4.073.229-6.462.229-1.849,0-3.553-.062-5.132-.145.769.561,1.579,1.163,2.41,1.828A48.734,48.734,0,0,1,77.413,80.058c1.517,2.285,7.958,12.485,4.28,18.489a8.249,8.249,0,0,1-5.174,3.926,7.59,7.59,0,0,1-3.387-.249c-1.579-.478-2.119-1.163-4.966-3.3a14.148,14.148,0,0,0-4.2-2.659,7.856,7.856,0,0,0-5.652,1.745,47.99,47.99,0,0,0-5.652,5.858.258.258,0,0,1-.062.042c-.062.062-.145.145-.27.249a.278.278,0,0,1-.145.125c.416.374.852.727,1.33,1.1a69.781,69.781,0,0,0,15.335,7.645v4.944a76.751,76.751,0,0,1-18.1-8.829c-10.846-7.977-6.753-18.51-2.286-28.9a7.862,7.862,0,0,0-1.912-8.372l2.826-3.656c.395.374.79.769,1.205,1.184a12.159,12.159,0,0,1,2.182,12.693A42.12,42.12,0,0,0,48.551,95.8a11.348,11.348,0,0,0,.125,2.41c.042.291.1.561.166.831L48.884,99c.893-1.288,1.517-2.285,1.621-2.451a18.516,18.516,0,0,1,5.486-5.526,11.131,11.131,0,0,1,7.065-1.807,10.669,10.669,0,0,1,4.01,1.475c4.031,2.223,4.7,4.986,6.566,4.757,1.683-.208,2.6-2.638,2.639-2.8.229-.6.769-2.493-1.725-7.229A41.847,41.847,0,0,0,63.8,73.016a2.931,2.931,0,0,1-.353-.291,74.9,74.9,0,0,0-11.885-7.79h-.021c-1.164-.623-2.39-1.246-3.7-1.87v-.021a28.966,28.966,0,0,1,2.348-3.49,58.172,58.172,0,0,0,10.722,2.7,59.66,59.66,0,0,0,6.608.6,56.7,56.7,0,0,0,6.961-.062,50.294,50.294,0,0,0,5.34-.623,45.891,45.891,0,0,0,8.956-2.618C89.568,60.738,90.358,61.935,91.168,63.148Z" transform="translate(-42.858 -59.554)" fill="#fff"/>
        <path id="Path_75" data-name="Path 75" d="M49.492,63.114a14.226,14.226,0,0,1-3.408-1.558,3.173,3.173,0,0,1-.332-.229v-.021c0-.021,0-.021.021-.062h.021Q47.751,62.179,49.492,63.114Z" transform="translate(-40.807 -57.733)" fill="#fff"/>
        <ellipse id="Ellipse_1" data-name="Ellipse 1" cx="2.791" cy="2.79" rx="2.791" ry="2.79" transform="translate(15.127 40.939)" fill="#fff"/>
        <ellipse id="Ellipse_2" data-name="Ellipse 2" cx="2.791" cy="2.79" rx="2.791" ry="2.79" transform="translate(20.234 43.226)" fill="#fff"/>
        <g id="Group_3" data-name="Group 3" transform="translate(0 5.422)">
          <path id="Path_76" data-name="Path 76" d="M45.762,62.164l-2.39,3.615a17.618,17.618,0,0,1,2.618,2.14l2.68-3.594a24.7,24.7,0,0,0-2.909-2.16Z" transform="translate(-43.372 -62.164)" fill="#fff"/>
          <path id="Path_77" data-name="Path 77" d="M77.738,70.641c.039-.064.081-.129.123-.193q.187-.287.386-.561c.133-.183.27-.361.416-.534h0l.208-.253h0a15.733,15.733,0,0,1,1.078-1.153h0c.071-.071.143-.139.208-.208h0l.141-.131.139-.129.137-.123a17.14,17.14,0,0,1,2.02-1.556h0l-2.4-3.617h0l-.139.087-.139.093h0l-.208.141h0l-.145.1-.075.05-.287.208c-.287.208-.586.415-.891.659l-.143.112a30.862,30.862,0,0,0-2.828,2.505c-.154.156-.31.314-.465.476A12.142,12.142,0,0,0,72.686,79.3l.416.954.3.706.389.931c.1.231.189.461.283.69.185.457.366.91.538,1.357a29.746,29.746,0,0,1,2.3,9.087,9.873,9.873,0,0,1-3.054,7.921,16.624,16.624,0,0,1-1.928,1.637,68.294,68.294,0,0,1-15.32,7.645h0v4.963a77.592,77.592,0,0,0,18.094-8.837,21.632,21.632,0,0,0,2.444-2.077,14.479,14.479,0,0,0,4.1-7.219h0A22.9,22.9,0,0,0,79.94,84.909l-.175-.511c-.127-.364-.258-.729-.391-1.093-.046-.127-.094-.251-.139-.376l-.416-1.1c-.066-.172-.135-.343-.208-.515q-.26-.642-.526-1.288c-.071-.17-.141-.343-.208-.515-.143-.343-.289-.688-.436-1.039-.073-.172-.145-.343-.22-.515s-.145-.345-.22-.515a6.611,6.611,0,0,1-.187-4.826,9.347,9.347,0,0,1,.923-1.978Z" transform="translate(-29.101 -62.142)" fill="#fff"/>
        </g>
      </g>
    </g>
  </g>
</svg>
