<svg xmlns="http://www.w3.org/2000/svg" xmlns:xlink="http://www.w3.org/1999/xlink" width="202.333" height="70" viewBox="0 0 202.333 70"><defs><style>.a{fill:none;}.b{clip-path:url(#a);}.c{fill:#121518;}.d{fill:#92c01f;}</style><clipPath id="a"><rect class="a" width="202.333" height="70"/></clipPath></defs><g transform="translate(0 0)"><g class="b" transform="translate(0 0)"><path class="c" d="M158.706,35.311a22.132,22.132,0,0,1,22.133-22.133c.132,0,.263.008.394.01a35,35,0,1,0-.509,44.253,22.131,22.131,0,0,1-22.018-22.13m-.839-10.629a3.688,3.688,0,0,1-3.688,3.688h-6.832V47.079a5.515,5.515,0,0,0,2.115,4.612v8.572s-12.638.223-12.638-12.31V28.374h10.522V17.853H136.824V11.019a3.688,3.688,0,0,1,3.688-3.688h6.834V17.853h10.522Z" transform="translate(13.462 0)"/><path class="d" d="M182.461,23.114a11.892,11.892,0,1,0-.218,19.769,35.048,35.048,0,0,0,.218-19.769" transform="translate(18.556 2.382)"/><path class="d" d="M45.306,13.981q1.817,0,1.817-1.893a1.623,1.623,0,0,0-1.817-1.855,1.639,1.639,0,0,0-1.855,1.855,1.656,1.656,0,0,0,1.855,1.893" transform="translate(4.921 1.159)"/><path class="d" d="M58.906,35.87a1.655,1.655,0,0,0-1.855,1.891,1.639,1.639,0,0,0,1.855,1.855,1.623,1.623,0,0,0,1.817-1.855q0-1.892-1.817-1.891" transform="translate(6.461 4.062)"/><path class="d" d="M54.588,35.87a1.655,1.655,0,0,0-1.855,1.891,1.639,1.639,0,0,0,1.855,1.855A1.623,1.623,0,0,0,56.4,37.761q0-1.892-1.817-1.891" transform="translate(5.972 4.062)"/><path class="d" d="M82.551,18.034a6.564,6.564,0,0,0-4.542,1.552A6.606,6.606,0,0,0,76.04,24.7V28.1q0,3.786-3.709,3.785H69.606q-3.71,0-3.709-3.785V18.526l-3.255,1.741V28.1q0,3.786-3.709,3.785H56.207q-3.709,0-3.709-3.785V18.526l-3.254,1.741V28.1q0,3.786-3.709,3.785H43.15q-3.672,0-3.671-3.785v-.416a8.381,8.381,0,0,0-2.385-6.132,9.493,9.493,0,0,0-6.964-2.612H29.9l7.457-8.4H34.028l-8.289,9.2v3.217A11.274,11.274,0,0,1,29.75,22.2a7.311,7.311,0,0,1,4.277,1.211,4.873,4.873,0,0,1,2.2,4.315v.34q0,3.824-3.634,3.824H22.18q-3.672,0-3.671-3.785V24.7a6.834,6.834,0,0,0-1.552-4.657,6.217,6.217,0,0,0-4.958-2,6.652,6.652,0,0,0-5.072,2.044,9.058,9.058,0,0,0-2.157,6.435,10,10,0,0,0,1.363,5.375,6.143,6.143,0,0,0-4.315,1.779A6.7,6.7,0,0,0,0,38.625v8.251l3.255-1.741v-6.4q0-3.786,3.709-3.785h4.958a6.966,6.966,0,0,0,5.034-1.893,6.454,6.454,0,0,0,4.883,1.893H32.892a6.342,6.342,0,0,0,4.958-1.968,6.341,6.341,0,0,0,4.958,1.968h3.1a6.357,6.357,0,0,0,4.96-2.006,6.353,6.353,0,0,0,4.958,2.006h3.481a6.356,6.356,0,0,0,4.958-2.006,6.354,6.354,0,0,0,4.958,2.006H72.71a6.454,6.454,0,0,0,4.883-1.893,6.778,6.778,0,0,0,5.186,1.893,6.236,6.236,0,0,0,4.845-2.044,9.106,9.106,0,0,0,2.12-6.4,9.507,9.507,0,0,0-1.665-5.829,6.426,6.426,0,0,0-5.526-2.65m-67.3,10.333q0,3.52-3.482,3.52a3.159,3.159,0,0,1-2.763-1.438,7.032,7.032,0,0,1-.984-4.012,6.577,6.577,0,0,1,1.041-3.955A3.424,3.424,0,0,1,12,21.062q3.255,0,3.255,3.785Zm70.268,2.082a3.207,3.207,0,0,1-2.782,1.438q-3.445,0-3.444-3.52v-3.52q0-3.786,3.255-3.785a3.439,3.439,0,0,1,2.914,1.419,6.5,6.5,0,0,1,1.06,3.955,6.941,6.941,0,0,1-1,4.012" transform="translate(0 1.194)"/><path class="d" d="M91.537,9.026H88.091a1.922,1.922,0,0,1-.568-1.249q0-1.287,1.4-1.287a2.531,2.531,0,0,1,1.59.643V5.468A3.132,3.132,0,0,0,88.7,4.862a2.678,2.678,0,0,0-1.93.814,2.588,2.588,0,0,0-.833,1.911,2.912,2.912,0,0,0,.379,1.438H85.291l-.871,1.628h6.245Z" transform="translate(9.561 0.551)"/><path class="d" d="M95.489,13.981q1.817,0,1.817-1.893a1.623,1.623,0,0,0-1.817-1.855,1.639,1.639,0,0,0-1.855,1.855,1.656,1.656,0,0,0,1.855,1.893" transform="translate(10.604 1.159)"/><path class="d" d="M99.807,13.981q1.817,0,1.817-1.893a1.623,1.623,0,0,0-1.817-1.855,1.639,1.639,0,0,0-1.855,1.855,1.656,1.656,0,0,0,1.855,1.893" transform="translate(11.093 1.159)"/><path class="d" d="M99.621,27.949q0,3.787-3.709,3.785H93.186q-3.709,0-3.709-3.785V11.9l-3.255,1.741V28.063a6.965,6.965,0,0,0,1.514,4.617,6.251,6.251,0,0,0,5.072,2.12H96.29a6.536,6.536,0,0,0,4.656-1.665,6.7,6.7,0,0,0,1.93-5.071V18.372l-3.255,1.741Z" transform="translate(9.765 1.348)"/><path class="c" d="M23.548,43.076H13.77v1.543h3.807V55.761h1.864V44.619h4.108Z" transform="translate(1.559 4.878)"/><path class="c" d="M26.873,43.076,22.284,55.76h1.9l.982-2.866h5.19l.962,2.866h1.9L28.636,43.076Zm-1.182,8.276,2.064-6.032,2.064,6.032Z" transform="translate(2.524 4.878)"/><path class="c" d="M40.595,52.474c-.147.468-.281.9-.4,1.282q-.2-.661-.581-1.9a64.461,64.461,0,0,0-3.246-8.776H34V55.76h1.844V45.32q.421,1.663,1.573,5t2.054,5.44h1.483q2.825-7.695,3.607-10.48V55.76h1.864V43.077H44.041a81.7,81.7,0,0,0-3.447,9.4" transform="translate(3.851 4.878)"/><rect class="c" width="1.844" height="12.684" transform="translate(53.882 47.954)"/><path class="c" d="M61.352,52.895q-2.425-4.006-6.432-9.818H53.3V55.76h1.844v-9.6q4.368,6.775,6.412,9.6h1.663V43.077H61.352Z" transform="translate(6.036 4.878)"/><path class="c" d="M70.678,54.382a3.546,3.546,0,0,1-2.805-1.242,5.2,5.2,0,0,1-1.182-3.567,6.236,6.236,0,0,1,.942-3.608,3.3,3.3,0,0,1,2.866-1.5,4.879,4.879,0,0,1,2.705.9l.741-1.121a5.938,5.938,0,0,0-3.807-1.384,4.729,4.729,0,0,0-3.867,1.925,7.564,7.564,0,0,0-1.543,4.789A7.152,7.152,0,0,0,65.969,53.8a5.164,5.164,0,0,0,4.469,2.224,5.48,5.48,0,0,0,3.667-1.463l-.741-1.123a4.776,4.776,0,0,1-2.685.943" transform="translate(7.33 4.854)"/><path class="c" d="M80.5,42.859a4.91,4.91,0,0,0-3.968,1.8,7.281,7.281,0,0,0-1.583,4.85,7.429,7.429,0,0,0,1.2,4.287,5.375,5.375,0,0,0,8.316.482,7.016,7.016,0,0,0,1.583-4.769,7.66,7.66,0,0,0-1.2-4.349,4.937,4.937,0,0,0-4.348-2.3m2.805,10.019a3.328,3.328,0,0,1-5.37.342,5.891,5.891,0,0,1-1.022-3.707,6.677,6.677,0,0,1,.782-3.428A3.077,3.077,0,0,1,80.5,44.462a3.029,3.029,0,0,1,2.565,1.262,6.2,6.2,0,0,1,1.022,3.788,6.4,6.4,0,0,1-.781,3.365" transform="translate(8.488 4.854)"/><path class="c" d="M97.482,43.076a81.785,81.785,0,0,0-3.447,9.4c-.148.468-.281.9-.4,1.284q-.2-.663-.581-1.9a64.485,64.485,0,0,0-3.246-8.777H87.443V55.76h1.844V45.32q.421,1.663,1.573,5t2.054,5.44H94.4q2.825-7.7,3.607-10.481V55.76h1.864V43.076Z" transform="translate(9.903 4.878)"/></g></g></svg>