<?xml version="1.0" standalone="no"?>
<!DOCTYPE svg PUBLIC "-//W3C//DTD SVG 20010904//EN"
 "http://www.w3.org/TR/2001/REC-SVG-20010904/DTD/svg10.dtd">
<svg version="1.0" xmlns="http://www.w3.org/2000/svg"
 width="63.000000pt" height="63.000000pt" viewBox="0 0 63.000000 63.000000"
 preserveAspectRatio="xMidYMid meet">

<g transform="translate(0.000000,63.000000) scale(0.100000,-0.100000)"
fill="#000000" stroke="none">
<path d="M29 601 l-30 -30 3 -262 c3 -260 3 -261 27 -280 22 -18 42 -19 285
-19 261 0 263 0 284 23 21 23 22 30 22 284 0 242 -1 263 -19 284 -19 24 -20
24 -280 27 l-262 3 -30 -30z m211 -43 c59 -11 158 -5 211 14 28 9 34 9 46 -8
12 -16 10 -20 -14 -33 -15 -7 -66 -16 -113 -19 l-86 -5 47 -47 c93 -94 127
-207 73 -249 -36 -28 -53 -26 -103 11 -43 31 -43 31 -75 14 -17 -9 -38 -26
-45 -38 -16 -26 -7 -34 74 -70 47 -20 55 -27 55 -50 0 -32 -6 -31 -107 20
-117 60 -147 129 -104 242 23 60 27 105 11 115 -6 4 -8 10 -5 15 3 5 -4 11
-15 15 -24 8 -25 18 -5 35 17 14 39 4 31 -16 -3 -8 0 -11 8 -8 20 8 46 -35 46
-76 0 -19 -9 -59 -20 -88 -11 -29 -20 -62 -20 -73 0 -18 3 -17 25 9 49 58 107
65 163 17 30 -25 52 -19 52 15 0 49 -100 157 -195 211 -30 17 -55 32 -55 34 0
24 16 36 39 30 14 -4 50 -11 81 -17z m304 -44 c4 -9 -4 -28 -19 -46 -31 -36
-31 -52 -4 -114 13 -27 22 -70 23 -99 1 -81 -37 -122 -167 -180 l-57 -25 1 28
c0 23 10 32 72 62 55 27 77 44 91 71 l20 36 -28 85 c-25 75 -27 89 -17 121 11
33 52 77 71 77 4 0 11 -7 14 -16z m-292 -306 c7 -7 20 -14 28 -16 23 -5 31
-17 24 -35 -7 -18 -44 -24 -44 -7 0 6 -9 10 -20 10 -23 0 -35 22 -26 45 7 18
20 19 38 3z"/>
</g>
</svg>
